<?xml version="1.0" encoding="utf-8"?>
<!-- Generator: Adobe Illustrator 24.2.1, SVG Export Plug-In . SVG Version: 6.00 Build 0)  -->
<svg version="1.1" id="Layer_1" xmlns="http://www.w3.org/2000/svg" xmlns:xlink="http://www.w3.org/1999/xlink" x="0px" y="0px"
	 viewBox="0 0 504 504" style="enable-background:new 0 0 504 504;" xml:space="preserve">
<path d="M425.2,52H78.9C71.8,52,66,57.9,66,64.9v374.2c0,7.1,5.8,12.9,12.9,12.9h346.2c7.1,0,12.9-5.8,12.9-12.9V64.9
	C438,57.9,432.2,52,425.2,52z M90.9,87.2c0-4.6,3.7-8.2,8.2-8.2h131.2c4.6,0,8.2,3.7,8.2,8.2V176c0,4.6-3.7,8.2-8.2,8.2H99.2
	c-4.6,0-8.2-3.7-8.2-8.2V87.2z M99.7,209h231.7l-112.6,64.7c-41.6,23.9-94.2,10.8-119.8-29.8l-1.2-1.8c-4.6-7.3-7-15.7-7-24.2
	C90.9,213,94.8,209,99.7,209z M413.2,414.2c0,4.9-3.9,8.8-8.8,8.8H99.7c-4.9,0-8.8-3.9-8.8-8.8V270.5c14.9,16.8,34.4,28.8,56.6,34.3
	c9,2.2,18.1,3.4,27.1,3.4c19.3,0,38.4-5,55.5-14.9L376.8,209h27.6c4.9,0,8.8,3.9,8.8,8.8L413.2,414.2L413.2,414.2z M413.2,176
	c0,4.6-3.7,8.2-8.2,8.2H273.7c-4.6,0-8.2-3.7-8.2-8.2V87.2c0-4.6,3.7-8.2,8.2-8.2h131.2c4.6,0,8.2,3.7,8.2,8.2V176z"/>
</svg>
