<?xml version="1.0" encoding="utf-8"?>
<!-- Generator: Adobe Illustrator 24.2.1, SVG Export Plug-In . SVG Version: 6.00 Build 0)  -->
<svg version="1.1" id="Layer_1" xmlns="http://www.w3.org/2000/svg" xmlns:xlink="http://www.w3.org/1999/xlink" x="0px" y="0px"
	 viewBox="0 0 23.8 23.8" style="enable-background:new 0 0 23.8 23.8;" xml:space="preserve">
<path d="M20.5,1.9H3.2c-0.4,0-0.6,0.3-0.6,0.6v18.7c0,0.4,0.3,0.6,0.6,0.6h17.3c0.4,0,0.6-0.3,0.6-0.6V2.5
	C21.2,2.2,20.9,1.9,20.5,1.9z M3.8,3.6c0-0.2,0.2-0.4,0.4-0.4h6.6c0.2,0,0.4,0.2,0.4,0.4v4.4c0,0.2-0.2,0.4-0.4,0.4H4.2
	C4,8.5,3.8,8.3,3.8,8.1L3.8,3.6L3.8,3.6z M4.3,9.7h11.6L10.2,13c-2.1,1.2-4.7,0.5-6-1.5l-0.1-0.1c-0.2-0.4-0.4-0.8-0.4-1.2
	C3.8,9.9,4,9.7,4.3,9.7z M19.9,20c0,0.2-0.2,0.4-0.4,0.4H4.3c-0.2,0-0.4-0.2-0.4-0.4v-7.2c0.7,0.8,1.7,1.4,2.8,1.7
	c0.4,0.1,0.9,0.2,1.4,0.2c1,0,1.9-0.2,2.8-0.7l7.3-4.2h1.4c0.2,0,0.4,0.2,0.4,0.4L19.9,20L19.9,20z M19.9,8.1c0,0.2-0.2,0.4-0.4,0.4
	H13c-0.2,0-0.4-0.2-0.4-0.4V3.6c0-0.2,0.2-0.4,0.4-0.4h6.6c0.2,0,0.4,0.2,0.4,0.4L19.9,8.1L19.9,8.1z"/>
</svg>
