<?xml version="1.0" encoding="utf-8"?>
<!-- Generator: Adobe Illustrator 24.2.1, SVG Export Plug-In . SVG Version: 6.00 Build 0)  -->
<svg version="1.1" id="Layer_1" xmlns="http://www.w3.org/2000/svg" xmlns:xlink="http://www.w3.org/1999/xlink" x="0px" y="0px"
	 viewBox="0 0 23.8 23.8" style="enable-background:new 0 0 23.8 23.8;" xml:space="preserve">
<path d="M20.1,2.4c-0.7,0-1.3,0.6-1.3,1.3v1.4C17.7,5,12.4,4.5,7.6,5.4C7.4,4.7,6.8,4.2,6.1,4.2H5.9C5.6,4.2,5.2,4.4,5,4.6V3.7
	C5,3,4.4,2.4,3.7,2.4C3,2.4,2.4,3,2.4,3.7v17.5c0,0.1,0.1,0.2,0.2,0.2h2.1c0.1,0,0.2-0.1,0.2-0.2v-2.2h13.8v2.2
	c0,0.1,0.1,0.2,0.2,0.2h2.1c0.1,0,0.2-0.1,0.2-0.2V3.7C21.4,3,20.8,2.4,20.1,2.4z M5.1,5.7c0-0.5,0.4-0.8,0.8-0.8h0.2
	C6.6,4.9,7,5.4,7,5.7v0.2c4.3-0.8,10.9-0.4,11.7-0.3v1.7L7,7.3h-2V5.7z M18.8,16.2L7,16.2h-2v-1.7c0-0.5,0.4-0.8,0.8-0.8h0.2
	c0.5,0,0.9,0.4,0.9,0.9v0.4c4.3-0.8,10.9-0.5,11.7-0.4V16.2z M18.8,13.9c-1.1-0.1-6.4-0.6-11.2,0.3c-0.2-0.6-0.7-1.1-1.4-1.1H5.9
	c-0.4,0-0.7,0.1-0.9,0.4v-3.4h13.8V13.9z"/>
</svg>
