<?xml version="1.0" encoding="utf-8"?>
<!-- Generator: Adobe Illustrator 24.2.1, SVG Export Plug-In . SVG Version: 6.00 Build 0)  -->
<svg version="1.1" id="Layer_1" xmlns="http://www.w3.org/2000/svg" xmlns:xlink="http://www.w3.org/1999/xlink" x="0px" y="0px"
	 viewBox="0 0 504 504" style="enable-background:new 0 0 504 504;" xml:space="preserve">
<path d="M412.4,66c-14.1,0-25.5,11.5-25.5,25.5v27.6c-21.3-2.1-125.4-11.1-218.8,5.4c-3.1-12.6-14.6-21.9-28.3-21.9h-4.3
	c-7.1,0-13.5,2.6-18.4,6.9v-18c0-14.1-11.5-25.5-25.5-25.5C77.5,66,66,77.5,66,91.6v341.7c0,2.6,2.1,4.6,4.6,4.6h41.7
	c2.6,0,4.6-2.1,4.6-4.6v-44h269.8v44c0,2.6,2.1,4.6,4.6,4.6h41.7c2.6,0,4.6-2.1,4.6-4.6V91.6C438,77.5,426.5,66,412.4,66z
	 M117.1,338.8v-36c0-9.8,8.3-17.9,18.4-17.9h4.3c10.9,0,19.8,8.6,19.8,19.3v34.6H117.1z M386.9,175.1v32H117.1v-32H386.9z
	 M168.1,297.5c-3.1-12.6-14.6-21.9-28.3-21.9h-4.3c-7.1,0-13.5,2.6-18.4,6.9v-66.1h269.8v75.6C365.6,289.9,261.5,281,168.1,297.5z
	 M168.9,306.8c94-16.8,199.5-7.3,218-5.4v37.4h-218V306.8z M386.9,128.5v37.4h-218v-32C262.9,117.1,368.4,126.6,386.9,128.5z
	 M135.5,111.9h4.3c10.9,0,19.8,8.6,19.8,19.3v34.6h-42.5v-36C117.1,120,125.3,111.9,135.5,111.9z M107.8,428.7H75.3V91.6
	c0-8.9,7.3-16.2,16.2-16.2c8.9,0,16.2,7.3,16.2,16.2V428.7z M117.1,380v-32h269.8v32H117.1z M428.7,428.7h-32.4V91.6
	c0-8.9,7.3-16.2,16.2-16.2c8.9,0,16.2,7.3,16.2,16.2V428.7z"/>
</svg>
