<?xml version="1.0" encoding="utf-8"?>
<!-- Generator: Adobe Illustrator 24.2.1, SVG Export Plug-In . SVG Version: 6.00 Build 0)  -->
<svg version="1.1" id="Layer_1" xmlns="http://www.w3.org/2000/svg" xmlns:xlink="http://www.w3.org/1999/xlink" x="0px" y="0px"
	 viewBox="0 0 23.8 23.8" style="enable-background:new 0 0 23.8 23.8;" xml:space="preserve">
<path d="M20.1,2.4c-0.7,0-1.3,0.6-1.3,1.3v1.4C17.7,5,12.4,4.5,7.6,5.4C7.4,4.7,6.8,4.2,6.1,4.2H5.9C5.6,4.2,5.2,4.4,5,4.6V3.7
	C5,3,4.4,2.4,3.7,2.4C3,2.4,2.4,3,2.4,3.7v17.5c0,0.1,0.1,0.2,0.2,0.2h2.1c0.1,0,0.2-0.1,0.2-0.2v-2.2h13.8v2.2
	c0,0.1,0.1,0.2,0.2,0.2h2.1c0.1,0,0.2-0.1,0.2-0.2V3.7C21.4,3,20.8,2.4,20.1,2.4z M5,16.3v-1.8c0-0.5,0.4-0.9,0.9-0.9h0.2
	c0.6,0,1,0.4,1,1v1.8H5z M18.8,8v1.6H5V8H18.8z M7.6,14.2c-0.2-0.6-0.7-1.1-1.4-1.1H5.9c-0.4,0-0.7,0.1-0.9,0.4v-3.4h13.8v3.9
	C17.7,13.8,12.4,13.4,7.6,14.2z M7.6,14.7c4.8-0.9,10.2-0.4,11.1-0.3v1.9H7.6V14.7z M18.8,5.6v1.9H7.6V5.8C12.4,5,17.8,5.5,18.8,5.6
	z M5.9,4.7h0.2c0.6,0,1,0.4,1,1v1.8H5V5.6C5,5.1,5.4,4.7,5.9,4.7z M4.5,20.9H2.9V3.7c0-0.5,0.4-0.8,0.8-0.8c0.5,0,0.8,0.4,0.8,0.8
	V20.9z M5,18.4v-1.6h13.8v1.6H5z M20.9,20.9h-1.7V3.7c0-0.5,0.4-0.8,0.8-0.8c0.5,0,0.8,0.4,0.8,0.8V20.9z"/>
</svg>
