<?xml version="1.0" encoding="utf-8"?>
<!-- Generator: Adobe Illustrator 24.2.1, SVG Export Plug-In . SVG Version: 6.00 Build 0)  -->
<svg version="1.1" id="Layer_1" xmlns="http://www.w3.org/2000/svg" xmlns:xlink="http://www.w3.org/1999/xlink" x="0px" y="0px"
	 viewBox="0 0 23.8 23.8" style="enable-background:new 0 0 23.8 23.8;" xml:space="preserve">
<g>
	<g>
		<g>
			<g>
				<path d="M4.6,13.6C4.6,13.6,4.6,13.6,4.6,13.6c-0.1,0-0.2,0-0.2-0.1c-0.1-0.1-0.1-0.2-0.1-0.3c0-0.1,0.1-0.2,0.2-0.3
					c-0.1,0-0.1,0-0.1,0c0,0-0.1,0,0-0.1c0,0,0-0.1,0.1,0c0,0,0.1,0,0.2,0.1c0.1,0,0.2-0.1,0.3-0.1c0,0,0.1,0,0.1,0.1
					c0,0,0,0.1-0.1,0.1c0,0-0.1,0-0.1,0c0.1,0.1,0.2,0.2,0.1,0.3c0,0.1,0,0.2-0.1,0.3C4.8,13.5,4.7,13.6,4.6,13.6z M4.6,13
					c-0.1,0-0.2,0.1-0.2,0.2c0,0.1,0,0.1,0.1,0.2c0,0,0.1,0.1,0.1,0.1c0.1,0,0.1,0,0.1,0c0,0,0.1-0.1,0.1-0.2
					C4.8,13.1,4.7,13,4.6,13z"/>
			</g>
			<g>
				<path d="M4,13.4c0,0-0.1,0-0.1,0c-0.1,0-0.1-0.1-0.2-0.2c0-0.1,0-0.2,0-0.2c0.1-0.2,0.4-0.2,0.5-0.2c0-0.4,0.1-0.8,0.1-1.1
					c0,0,0-0.1,0.1-0.1c0,0,0,0,0,0c0,0,0.1,0,0.1,0.1c0,0,0,0.7-0.1,1.1c0,0,0,0,0,0c0,0,0.1,0,0,0.1c0,0,0,0.1-0.1,0c0,0,0,0,0,0
					c0,0.1,0,0.2-0.1,0.3C4.2,13.3,4.1,13.4,4,13.4z M4.1,12.9c-0.1,0-0.2,0-0.3,0.1c0,0,0,0.1,0,0.1c0,0,0.1,0.1,0.1,0.1
					c0.1,0,0.2,0,0.2-0.1c0-0.1,0-0.2,0.1-0.3C4.2,12.9,4.2,12.9,4.1,12.9z"/>
			</g>
			<g>
				<path d="M5.2,13.5c-0.1,0-0.1,0-0.1,0C5,13.4,5,13.3,5,13.2c0-0.1,0-0.2,0-0.3c0,0,0,0,0,0c0,0-0.1,0-0.1-0.1c0,0,0-0.1,0.1-0.1
					c0,0,0,0,0,0c0-0.5,0.1-1.1,0.1-1.1c0,0,0-0.1,0.1-0.1c0,0,0.1,0,0.1,0.1C5.1,12,5,12.4,5,12.8c0.2,0,0.4,0,0.5,0.3
					c0,0.1,0,0.2,0,0.2C5.5,13.4,5.4,13.4,5.2,13.5C5.3,13.5,5.3,13.5,5.2,13.5z M5,12.9c0,0.1,0,0.2,0,0.3c0,0,0,0.1,0.1,0.1
					c0,0,0.1,0,0.1,0c0.1,0,0.2-0.1,0.1-0.2C5.4,13,5.2,12.9,5,12.9z"/>
			</g>
		</g>
		<g>
			<path d="M4.6,15.1L4.6,15.1c0,0-0.1,0-0.1,0c-0.4,0-0.8-0.2-1.1-0.6c-0.3-0.3-0.4-0.8-0.4-1.2c0-0.6,0.4-1.1,1-1.4l0-0.3
				c0,0,0-0.1,0.1-0.1c0.2-0.1,0.5-0.1,0.7-0.1c0.2,0,0.5,0.1,0.7,0.2c0,0,0,0.1,0,0.1l0,0.3c0.5,0.3,0.8,0.9,0.8,1.5
				C6.2,14.4,5.5,15.1,4.6,15.1z M4.1,11.7l0,0.3c0,0,0,0.1-0.1,0.1c-0.5,0.2-0.9,0.7-0.9,1.2c0,0.4,0.1,0.8,0.4,1.1
				c0.3,0.3,0.6,0.5,1,0.5C5.3,15,6,14.3,6.1,13.5c0-0.6-0.2-1.1-0.7-1.4c0,0,0,0,0-0.1l0-0.3c-0.2-0.1-0.4-0.1-0.6-0.2
				C4.5,11.6,4.3,11.6,4.1,11.7z"/>
		</g>
		<g>
			<path d="M5.3,11.8C5.3,11.8,5.3,11.8,5.3,11.8C5.3,11.8,5.2,11.8,5.3,11.8l-0.1-0.4c-0.2-0.1-0.3-0.1-0.5-0.1c-0.2,0-0.4,0-0.5,0
				l0,0.3c0,0,0,0.1-0.1,0.1c0,0-0.1,0-0.1-0.1l0-0.4c0,0,0-0.1,0.1-0.1c0.2-0.1,0.4-0.1,0.7-0.1c0.2,0,0.4,0.1,0.6,0.2
				c0,0,0.1,0.1,0.1,0.1L5.3,11.8C5.4,11.8,5.4,11.8,5.3,11.8z"/>
		</g>
		<g>
			<path d="M5.2,11.4C5.2,11.4,5.2,11.4,5.2,11.4C5.2,11.4,5.1,11.3,5.2,11.4l-0.1-0.3C5,11,4.9,11,4.8,11c-0.1,0-0.3,0-0.4,0l0,0.2
				c0,0,0,0.1-0.1,0.1c0,0-0.1,0-0.1-0.1l0-0.3c0,0,0-0.1,0.1-0.1c0.2,0,0.3,0,0.5,0c0.2,0,0.3,0,0.5,0.1c0,0,0.1,0.1,0.1,0.1
				L5.2,11.4C5.3,11.3,5.3,11.4,5.2,11.4z"/>
		</g>
		<g>
			<path d="M5.2,11.1C5.2,11.1,5.2,11.1,5.2,11.1C5.2,11.1,5.1,11.1,5.2,11.1l-0.1-0.3c-0.1,0-0.3-0.1-0.4-0.1c-0.1,0-0.3,0-0.4,0
				l0,0.2c0,0,0,0.1-0.1,0.1c0,0-0.1,0-0.1-0.1l0-0.3c0,0,0-0.1,0.1-0.1c0.2,0,0.3,0,0.5,0c0.2,0,0.3,0,0.5,0.1c0,0,0.1,0.1,0.1,0.1
				L5.2,11.1C5.3,11.1,5.3,11.1,5.2,11.1z"/>
		</g>
	</g>
	<g>
		<g>
			<g>
				<path d="M10.6,12.7C10.6,12.7,10.5,12.7,10.6,12.7c-0.2,0-0.2-0.1-0.3-0.1c0-0.1-0.1-0.2,0-0.3c0-0.1,0.1-0.2,0.2-0.2
					c-0.1,0-0.1-0.1-0.1-0.1c0,0,0,0,0-0.1c0,0,0,0,0.1,0c0,0,0.1,0,0.2,0.1c0.1,0,0.2,0,0.3,0c0,0,0.1,0,0.1,0.1c0,0,0,0.1-0.1,0.1
					c0,0-0.1,0-0.1,0c0.1,0.1,0.1,0.2,0.1,0.3c0,0.1-0.1,0.2-0.1,0.2C10.7,12.7,10.7,12.7,10.6,12.7z M10.6,12.1
					c-0.1,0-0.2,0.1-0.2,0.2c0,0.1,0,0.1,0,0.2c0,0,0.1,0.1,0.1,0.1c0.1,0,0.1,0,0.2,0c0,0,0.1-0.1,0.1-0.1
					C10.8,12.3,10.7,12.2,10.6,12.1z"/>
			</g>
			<g>
				<path d="M10,12.4c-0.1,0-0.1,0-0.2-0.1c-0.1-0.1-0.2-0.3-0.1-0.4c0.1-0.2,0.4-0.1,0.6-0.1c0.1-0.4,0.2-0.9,0.3-1.1
					c0,0,0-0.1,0.1,0c0,0,0.1,0,0,0.1c0,0-0.2,0.7-0.3,1.1c0,0,0,0,0,0c0,0,0,0.1,0,0.1c0,0-0.1,0-0.1,0c0,0,0,0,0,0
					c0,0.1-0.1,0.2-0.1,0.3C10.2,12.4,10.1,12.4,10,12.4z M10.1,11.9c-0.1,0-0.2,0-0.2,0.1c-0.1,0.1,0,0.2,0.1,0.3
					c0.1,0.1,0.2,0,0.3-0.1c0,0,0.1-0.1,0.1-0.3C10.2,11.9,10.1,11.9,10.1,11.9z"/>
			</g>
			<g>
				<path d="M11.2,12.7c-0.2,0-0.3-0.1-0.3-0.3c0-0.1,0-0.2,0-0.3c0,0,0,0,0,0c0,0-0.1,0-0.1-0.1c0,0,0-0.1,0.1-0.1c0,0,0,0,0,0
					c0.1-0.5,0.3-1.1,0.3-1.1c0,0,0-0.1,0.1,0c0,0,0.1,0,0,0.1c-0.1,0.3-0.2,0.7-0.3,1.1c0.2,0,0.4,0.1,0.5,0.4
					C11.6,12.6,11.4,12.7,11.2,12.7C11.2,12.7,11.2,12.7,11.2,12.7z M11.1,12.2c0,0.1,0,0.2,0,0.3c0,0.1,0,0.1,0.1,0.1
					c0,0,0.1,0,0.1,0c0.1,0,0.1,0,0.1-0.1c0,0,0-0.1,0-0.1C11.4,12.2,11.2,12.2,11.1,12.2z"/>
			</g>
		</g>
		<g>
			<path d="M10.5,14.2L10.5,14.2c-0.1,0-0.3,0-0.4-0.1c-0.4-0.1-0.8-0.4-1-0.7C8.9,13,8.8,12.6,9,12.2c0.2-0.6,0.6-1,1.2-1.2
				l0.1-0.3c0,0,0-0.1,0.1-0.1c0.2,0,0.5,0,0.7,0c0.2,0.1,0.5,0.2,0.6,0.3c0,0,0,0.1,0,0.1l-0.1,0.3c0.5,0.4,0.6,1,0.5,1.6
				C11.9,13.7,11.3,14.2,10.5,14.2z M10.4,10.8l-0.1,0.3c0,0,0,0.1-0.1,0.1c-0.6,0.1-1,0.5-1.1,1.1c-0.1,0.4,0,0.8,0.2,1.1
				c0.2,0.3,0.5,0.6,0.9,0.7c0.1,0,0.2,0,0.4,0c0.7,0,1.2-0.5,1.4-1.1c0.1-0.5,0-1.1-0.5-1.5c0,0,0-0.1,0-0.1l0.1-0.3
				c-0.2-0.1-0.3-0.2-0.5-0.3C10.8,10.8,10.6,10.8,10.4,10.8z"/>
		</g>
		<g>
			<path d="M11.6,11.1C11.6,11.1,11.6,11.1,11.6,11.1c-0.1,0-0.1-0.1-0.1-0.1l0.1-0.3c-0.2-0.1-0.3-0.2-0.5-0.2
				c-0.2,0-0.4-0.1-0.5-0.1l-0.1,0.3c0,0-0.1,0.1-0.1,0.1c0,0-0.1-0.1-0.1-0.1l0.1-0.4c0,0,0-0.1,0.1-0.1c0.2,0,0.4,0,0.7,0.1
				c0.2,0.1,0.4,0.1,0.6,0.3c0,0,0,0.1,0,0.1L11.6,11.1C11.6,11.1,11.6,11.1,11.6,11.1z"/>
		</g>
		<g>
			<path d="M11.5,10.6C11.5,10.6,11.5,10.6,11.5,10.6c-0.1,0-0.1-0.1-0.1-0.1l0.1-0.2c-0.1-0.1-0.2-0.1-0.4-0.1
				c-0.1,0-0.3-0.1-0.4-0.1l0,0.2c0,0-0.1,0.1-0.1,0.1c0,0-0.1-0.1-0.1-0.1l0.1-0.3c0,0,0.1-0.1,0.1-0.1c0.2,0,0.3,0,0.5,0.1
				c0.2,0,0.3,0.1,0.5,0.2c0,0,0.1,0.1,0,0.1L11.5,10.6C11.6,10.6,11.6,10.6,11.5,10.6z"/>
		</g>
		<g>
			<path d="M11.6,10.4C11.6,10.4,11.6,10.4,11.6,10.4c-0.1,0-0.1-0.1-0.1-0.1l0.1-0.2c-0.1-0.1-0.2-0.1-0.4-0.1
				c-0.1,0-0.3-0.1-0.4-0.1l-0.1,0.2c0,0-0.1,0.1-0.1,0.1c0,0-0.1-0.1-0.1-0.1l0.1-0.3c0,0,0.1-0.1,0.1-0.1c0.2,0,0.3,0,0.5,0.1
				c0.2,0,0.3,0.1,0.5,0.2c0,0,0.1,0.1,0,0.1L11.6,10.4C11.7,10.4,11.6,10.4,11.6,10.4z"/>
		</g>
	</g>
	<g>
		<g>
			<g>
				<path d="M15.1,13.8c-0.2,0-0.3-0.2-0.3-0.3c0-0.1,0-0.2,0.1-0.3c-0.1,0-0.1,0-0.1,0c0,0-0.1,0-0.1-0.1c0,0,0-0.1,0.1-0.1
					c0,0,0.1,0,0.3,0c0.1-0.1,0.2-0.1,0.2-0.1c0,0,0.1,0,0.1,0c0,0,0,0.1,0,0.1c0,0-0.1,0-0.1,0c0.1,0.1,0.2,0.1,0.2,0.3
					c0,0.1,0,0.2,0,0.2C15.3,13.7,15.3,13.7,15.1,13.8C15.1,13.8,15.1,13.8,15.1,13.8z M15.1,13.2c-0.1,0.1-0.2,0.1-0.2,0.2
					c0,0.1,0.1,0.2,0.2,0.2c0.1,0,0.1,0,0.1-0.1c0,0,0-0.1,0-0.2C15.3,13.3,15.2,13.2,15.1,13.2z"/>
			</g>
			<g>
				<path d="M14.5,13.7C14.4,13.7,14.4,13.7,14.5,13.7c-0.2,0-0.2-0.1-0.3-0.1c0-0.1-0.1-0.2,0-0.2c0.1-0.2,0.3-0.3,0.5-0.3
					c0-0.4-0.1-0.9-0.1-1.1c0,0,0-0.1,0.1-0.1c0,0,0.1,0,0.1,0.1c0,0,0.1,0.7,0.1,1.1c0,0,0,0,0,0c0,0,0.1,0,0.1,0.1
					c0,0,0,0.1-0.1,0.1c0,0,0,0,0,0c0,0.1,0,0.2,0,0.3C14.7,13.6,14.6,13.7,14.5,13.7z M14.7,13.1c-0.1,0-0.3,0-0.4,0.2
					c0,0,0,0.1,0,0.1c0,0,0.1,0.1,0.1,0.1c0.1,0,0.2,0,0.2-0.1C14.7,13.4,14.7,13.3,14.7,13.1z"/>
			</g>
			<g>
				<path d="M15.7,13.5c-0.1,0-0.2-0.1-0.3-0.2c0-0.1-0.1-0.2-0.1-0.3c0,0,0,0,0,0c0,0-0.1,0-0.1,0c0,0,0-0.1,0-0.1c0,0,0,0,0,0
					c-0.1-0.5-0.2-1.1-0.2-1.1c0,0,0-0.1,0.1-0.1c0,0,0.1,0,0.1,0.1c0,0.3,0.1,0.8,0.2,1.1c0.2,0,0.4,0,0.5,0.2c0,0.1,0,0.2,0,0.2
					c0,0.1-0.1,0.1-0.2,0.2C15.8,13.5,15.8,13.5,15.7,13.5z M15.5,13c0,0.1,0.1,0.2,0.1,0.3c0,0.1,0.2,0.1,0.3,0.1
					c0,0,0.1-0.1,0.1-0.1c0,0,0-0.1,0-0.1C15.8,13,15.6,13,15.5,13z"/>
			</g>
		</g>
		<g>
			<path d="M15.1,15.3c-0.8,0-1.5-0.6-1.6-1.4c-0.1-0.6,0.2-1.2,0.7-1.5l0-0.3c0,0,0-0.1,0-0.1c0.2-0.1,0.4-0.2,0.7-0.2
				c0.2,0,0.5,0,0.7,0.1c0,0,0.1,0,0.1,0.1l0,0.3c0.6,0.2,1,0.7,1,1.3c0.1,0.9-0.5,1.7-1.4,1.8C15.2,15.3,15.2,15.3,15.1,15.3z
				 M14.3,12l0,0.3c0,0,0,0.1,0,0.1c-0.5,0.3-0.7,0.8-0.7,1.4c0.1,0.8,0.8,1.4,1.6,1.3c0.8-0.1,1.4-0.8,1.3-1.6
				c-0.1-0.6-0.4-1-1-1.2c0,0-0.1,0-0.1-0.1l0-0.3c-0.2-0.1-0.4-0.1-0.6-0.1C14.7,11.9,14.5,11.9,14.3,12z"/>
		</g>
		<g>
			<path d="M14.3,12C14.2,12,14.2,12,14.3,12l-0.1-0.4c0,0,0-0.1,0.1-0.1c0.2-0.1,0.4-0.2,0.6-0.2c0.2,0,0.4,0,0.7,0
				c0,0,0.1,0,0.1,0.1l0,0.4c0,0,0,0.1-0.1,0.1c-0.1,0-0.1,0-0.1-0.1l0-0.3c-0.2,0-0.4,0-0.5,0c-0.2,0-0.4,0.1-0.5,0.1l0,0.3
				C14.4,12,14.3,12,14.3,12C14.3,12,14.3,12,14.3,12z"/>
		</g>
		<g>
			<path d="M14.4,11.6C14.3,11.6,14.3,11.6,14.4,11.6l-0.1-0.4c0,0,0-0.1,0.1-0.1c0.2-0.1,0.3-0.1,0.5-0.1c0.2,0,0.3,0,0.5,0
				c0,0,0.1,0,0.1,0.1l0,0.3c0,0,0,0.1-0.1,0.1c-0.1,0-0.1,0-0.1-0.1l0-0.2c-0.1,0-0.3,0-0.4,0c-0.1,0-0.3,0-0.4,0.1l0,0.2
				C14.5,11.5,14.4,11.6,14.4,11.6C14.4,11.6,14.4,11.6,14.4,11.6z"/>
		</g>
		<g>
			<path d="M14.3,11.3C14.3,11.3,14.3,11.3,14.3,11.3L14.2,11c0,0,0-0.1,0.1-0.1c0.2-0.1,0.3-0.1,0.5-0.1c0.2,0,0.3,0,0.5,0
				c0,0,0.1,0,0.1,0.1l0,0.3c0,0,0,0.1-0.1,0.1c-0.1,0-0.1,0-0.1-0.1l0-0.2c-0.1,0-0.3,0-0.4,0c-0.1,0-0.3,0-0.4,0.1l0,0.2
				C14.4,11.3,14.4,11.3,14.3,11.3C14.3,11.3,14.3,11.3,14.3,11.3z"/>
		</g>
	</g>
	<g>
		<g>
			<g>
				<path d="M20.6,13.3c-0.1,0-0.3-0.1-0.3-0.2c0-0.1,0-0.2,0-0.3c-0.1,0-0.1,0-0.1,0c0,0-0.1,0-0.1,0c0,0,0-0.1,0-0.1
					c0,0,0.1,0,0.3,0c0.1-0.1,0.2-0.2,0.2-0.2c0,0,0.1,0,0.1,0c0,0,0,0.1,0,0.1c0,0,0,0-0.1,0.1c0.1,0,0.2,0.1,0.3,0.2
					c0.1,0.2,0,0.4-0.2,0.4C20.7,13.3,20.7,13.3,20.6,13.3z M20.5,12.7c-0.1,0.1-0.1,0.2-0.1,0.3c0,0.1,0.1,0.2,0.3,0.1
					c0.2-0.1,0.1-0.2,0.1-0.3C20.7,12.8,20.6,12.7,20.5,12.7z"/>
			</g>
			<g>
				<path d="M20,13.4c-0.1,0-0.2,0-0.2-0.1c-0.1-0.1-0.1-0.1-0.1-0.2c0-0.2,0.2-0.4,0.4-0.4c-0.1-0.3-0.3-0.8-0.4-1.1
					c0,0,0-0.1,0-0.1c0,0,0.1,0,0.1,0c0,0,0.3,0.6,0.4,1.1c0,0,0,0,0,0c0,0,0.1,0,0.1,0c0,0,0,0.1,0,0.1c0,0,0,0,0,0
					c0,0.1,0.1,0.2,0.1,0.3C20.3,13.2,20.2,13.4,20,13.4C20,13.4,20,13.4,20,13.4z M20.1,12.8c-0.1,0-0.3,0.1-0.3,0.3
					c0,0.1,0,0.1,0.1,0.1c0,0,0.1,0.1,0.1,0c0.1,0,0.2-0.1,0.2-0.2C20.2,13,20.1,12.9,20.1,12.8z"/>
			</g>
			<g>
				<path d="M21.1,12.9C21.1,12.9,21.1,12.9,21.1,12.9c-0.1,0-0.2,0-0.2-0.1c0,0-0.1-0.1-0.2-0.3c0,0,0,0,0,0c0,0-0.1,0-0.1,0
					c0,0,0-0.1,0-0.1c0,0,0,0,0,0c-0.2-0.4-0.4-1-0.5-1.1c0,0,0-0.1,0-0.1c0,0,0.1,0,0.1,0c0.1,0.3,0.3,0.7,0.4,1
					c0.2-0.1,0.4-0.2,0.6,0c0.1,0.1,0.1,0.1,0.1,0.2c0,0.1,0,0.2-0.1,0.2C21.3,12.9,21.2,12.9,21.1,12.9z M20.8,12.5
					c0.1,0.1,0.1,0.2,0.1,0.2c0,0,0.1,0.1,0.1,0.1c0.1,0,0.1,0,0.1,0c0,0,0.1-0.1,0.1-0.1c0-0.1,0-0.1,0-0.1
					C21.2,12.3,21,12.4,20.8,12.5z"/>
			</g>
		</g>
		<g>
			<path d="M20.7,14.8L20.7,14.8c-0.7,0-1.3-0.4-1.5-1c-0.2-0.6-0.1-1.2,0.3-1.7l-0.1-0.3c0,0,0-0.1,0-0.1c0.2-0.2,0.4-0.3,0.6-0.4
				c0.2-0.1,0.5-0.1,0.7-0.1c0,0,0.1,0,0.1,0.1l0.1,0.3c0.6,0.1,1.1,0.4,1.4,1c0.3,0.8-0.1,1.8-0.9,2.1
				C21.1,14.7,20.9,14.8,20.7,14.8z M19.5,11.8l0.1,0.3c0,0,0,0.1,0,0.1c-0.4,0.4-0.5,1-0.3,1.5c0.2,0.5,0.8,0.9,1.3,0.9
				c0.2,0,0.4,0,0.6-0.1c0.7-0.3,1.1-1.2,0.8-1.9c-0.2-0.5-0.7-0.9-1.3-0.9c0,0-0.1,0-0.1-0.1l-0.1-0.3c-0.2,0-0.4,0-0.6,0.1
				C19.8,11.5,19.6,11.6,19.5,11.8z"/>
		</g>
		<g>
			<path d="M19.4,11.8C19.4,11.8,19.3,11.8,19.4,11.8l-0.2-0.4c0,0,0-0.1,0-0.1c0.2-0.1,0.4-0.3,0.6-0.3c0.2-0.1,0.4-0.1,0.6-0.2
				c0,0,0.1,0,0.1,0.1l0.1,0.3c0,0,0,0.1,0,0.1c0,0-0.1,0-0.1,0L20.4,11c-0.2,0-0.4,0.1-0.5,0.1c-0.2,0.1-0.3,0.2-0.5,0.3l0.1,0.3
				C19.5,11.8,19.5,11.8,19.4,11.8C19.4,11.8,19.4,11.8,19.4,11.8z"/>
		</g>
		<g>
			<path d="M19.4,11.4C19.3,11.4,19.3,11.4,19.4,11.4l-0.2-0.3c0,0,0-0.1,0-0.1c0.1-0.1,0.3-0.2,0.4-0.3c0.2-0.1,0.3-0.1,0.5-0.1
				c0,0,0.1,0,0.1,0.1l0.1,0.3c0,0,0,0.1,0,0.1c0,0-0.1,0-0.1,0l-0.1-0.2c-0.1,0-0.3,0.1-0.4,0.1c-0.1,0.1-0.2,0.1-0.3,0.2l0.1,0.2
				C19.5,11.3,19.5,11.3,19.4,11.4C19.4,11.4,19.4,11.4,19.4,11.4z"/>
		</g>
		<g>
			<path d="M19.3,11.1C19.2,11.1,19.2,11.1,19.3,11.1l-0.2-0.3c0,0,0-0.1,0-0.1c0.1-0.1,0.3-0.2,0.4-0.3c0.2-0.1,0.3-0.1,0.5-0.1
				c0,0,0.1,0,0.1,0.1l0.1,0.3c0,0,0,0.1,0,0.1c0,0-0.1,0-0.1,0L20,10.5c-0.1,0-0.3,0.1-0.4,0.1c-0.1,0.1-0.2,0.1-0.3,0.2l0.1,0.2
				C19.4,11.1,19.4,11.1,19.3,11.1C19.3,11.1,19.3,11.1,19.3,11.1z"/>
		</g>
	</g>
	<g>
		<path d="M8.1,12.4c-0.5,0-0.8-0.3-0.8-0.7c0-0.3,0-0.6,0.1-0.9c-0.1,0-0.2,0-0.3,0c-1.8,0-5,0.1-5.7-1.2c0-0.1,0-0.1,0.1-0.2
			c0.1,0,0.1,0,0.2,0.1c0.6,1.2,3.9,1.1,5.5,1.1c0.1,0,0.3,0,0.4,0c0.3-0.5,0.7-1,1.3-1.1c0.8-0.2,2.1,0.3,3.5,0.7
			c1,0.4,2,0.7,2.5,0.7c0.2,0,0.4-0.1,0.6-0.2c-0.1-0.1-0.1-0.2-0.2-0.3c-0.3-0.5-0.4-1-0.2-1.4c0.1-0.2,0.3-0.4,0.8-0.4
			c0.4,0,0.7,0.2,0.7,0.6c0,0.4-0.3,1-0.7,1.4c0.3,0.3,0.8,0.6,1.3,0.5c1.4-0.1,3.9-1.2,4.3-1.9c0-0.1,0.1-0.1,0.2,0
			c0.1,0,0.1,0.1,0,0.2c-0.5,0.8-3,1.9-4.5,2c-0.6,0-1.1-0.2-1.5-0.6c-0.2,0.2-0.5,0.3-0.8,0.3c-0.6,0-1.6-0.3-2.6-0.7
			C11,9.9,9.6,9.4,8.9,9.6C8.4,9.7,8,10.1,7.8,10.5c0.8,0,1.1,0.5,1.1,1C8.9,11.9,8.7,12.4,8.1,12.4C8.1,12.4,8.1,12.4,8.1,12.4z
			 M7.7,10.7c-0.1,0.3-0.2,0.6-0.2,0.9c0,0.2,0.2,0.5,0.6,0.5c0.4,0,0.5-0.3,0.5-0.6C8.7,11.1,8.4,10.7,7.7,10.7
			C7.7,10.7,7.7,10.7,7.7,10.7z M15.8,8.7c-0.3,0-0.5,0.1-0.6,0.3c-0.1,0.3-0.1,0.7,0.2,1.1c0.1,0.1,0.1,0.2,0.2,0.2
			c0.4-0.4,0.6-0.9,0.6-1.2C16.2,8.9,16.1,8.7,15.8,8.7z"/>
	</g>
</g>
</svg>
