<?xml version="1.0" encoding="utf-8"?>
<!-- Generator: Adobe Illustrator 24.2.1, SVG Export Plug-In . SVG Version: 6.00 Build 0)  -->
<svg version="1.1" id="Layer_1" xmlns="http://www.w3.org/2000/svg" xmlns:xlink="http://www.w3.org/1999/xlink" x="0px" y="0px"
	 viewBox="0 0 23.8 23.8" style="enable-background:new 0 0 23.8 23.8;" xml:space="preserve">
<style type="text/css">
	.st0{fill:none;}
</style>
<path class="st0" d="M29.7,11.3l0,0.2c0.2-0.1,0.4-0.1,0.6-0.1c0.2,0,0.3,0.1,0.5,0.1l0-0.2c-0.2-0.1-0.3-0.1-0.5-0.1
	C30.1,11.3,29.9,11.3,29.7,11.3z"/>
<path class="st0" d="M30.7,11.2l0-0.2c-0.1,0-0.3-0.1-0.4-0.1c-0.1,0-0.3,0-0.4,0l0,0.2c0.1,0,0.3,0,0.4,0
	C30.4,11.1,30.6,11.2,30.7,11.2z"/>
<path class="st0" d="M33.2,10.7c-0.1,0.3-0.2,0.6-0.2,0.9c0,0.2,0.2,0.5,0.6,0.5c0.4,0,0.5-0.3,0.5-0.6
	C34.2,11.1,33.9,10.7,33.2,10.7C33.3,10.7,33.3,10.7,33.2,10.7z"/>
<path class="st0" d="M30.7,10.9L30.7,10.9c-0.1-0.1-0.2-0.1-0.3-0.1c0,0-0.1,0-0.1,0c-0.1,0-0.2,0-0.3,0l0,0.1c0.1,0,0.3,0,0.4,0
	C30.5,10.8,30.6,10.9,30.7,10.9z"/>
<path class="st0" d="M36.4,9.9L36.4,9.9c0.1,0.1,0.2,0.1,0.4,0.1c0.1,0,0.2,0.1,0.4,0.1l0-0.1c-0.2-0.1-0.4-0.1-0.6-0.2
	C36.5,9.9,36.4,9.9,36.4,9.9z"/>
<path class="st0" d="M37,10.5l0-0.1c-0.1-0.1-0.2-0.1-0.4-0.1c-0.1,0-0.3-0.1-0.4-0.1l0,0.1c0.1,0,0.3,0,0.4,0
	C36.8,10.4,36.9,10.4,37,10.5z"/>
<path class="st0" d="M36.1,10.4l0,0.2c0.2,0,0.4,0,0.6,0c0.2,0,0.3,0.1,0.5,0.2l0-0.2c-0.2-0.1-0.3-0.2-0.5-0.2
	C36.4,10.5,36.3,10.4,36.1,10.4z"/>
<path class="st0" d="M7.5,10.3l0-0.3C7.3,10,7,9.9,6.7,9.9c-0.3,0-0.5,0-0.8,0l0,0.3c0.3,0,0.5-0.1,0.8-0.1
	C7,10.2,7.2,10.3,7.5,10.3z"/>
<path class="st0" d="M5.6,10.6l0,0.4c0.4-0.1,0.7-0.2,1.1-0.1c0.4,0,0.7,0.1,1,0.3l0-0.3c-0.3-0.1-0.7-0.2-1-0.2
	C6.3,10.5,6,10.5,5.6,10.6z"/>
<path class="st0" d="M7.5,9.7l0-0.2C7.3,9.5,7.1,9.4,6.9,9.4c-0.1,0-0.2,0-0.3,0c-0.2,0-0.4,0-0.6,0l0,0.2c0.3,0,0.5-0.1,0.8,0
	C7,9.6,7.3,9.6,7.5,9.7z"/>
<path class="st0" d="M18.1,8.8l-0.1,0.3c0.4,0,0.7,0,1.1,0.1c0.3,0.1,0.7,0.2,1,0.4l0.1-0.3c-0.3-0.2-0.6-0.3-1-0.4
	C18.9,8.8,18.5,8.8,18.1,8.8z"/>
<path class="st0" d="M20,8.9l0.1-0.3c-0.2-0.1-0.5-0.2-0.7-0.3c-0.3-0.1-0.5-0.1-0.8-0.1l-0.1,0.3c0.3,0,0.5,0,0.8,0.1
	C19.6,8.7,19.8,8.8,20,8.9z"/>
<path class="st0" d="M18.7,7.7l0,0.2c0.3,0,0.5,0,0.8,0.1c0.3,0.1,0.5,0.2,0.7,0.3l0-0.1c-0.4-0.1-0.7-0.2-1.1-0.4
	C19,7.8,18.8,7.7,18.7,7.7z"/>
<path class="st0" d="M5.6,10.6l0,0.4c0.4-0.1,0.7-0.2,1.1-0.1c0.4,0,0.7,0.1,1,0.3l0-0.3c-0.3-0.1-0.7-0.2-1-0.2
	C6.3,10.5,6,10.5,5.6,10.6z"/>
<path class="st0" d="M7.5,10.3l0-0.3C7.3,10,7,9.9,6.7,9.9c-0.3,0-0.5,0-0.8,0l0,0.3c0.3,0,0.5-0.1,0.8-0.1
	C7,10.2,7.2,10.3,7.5,10.3z"/>
<path class="st0" d="M7.5,9.7l0-0.2C7.3,9.5,7.1,9.4,6.9,9.4c-0.1,0-0.2,0-0.3,0c-0.2,0-0.4,0-0.6,0l0,0.2c0.3,0,0.5-0.1,0.8,0
	C7,9.6,7.3,9.6,7.5,9.7z"/>
<path class="st0" d="M20,8.9l0.1-0.3c-0.2-0.1-0.5-0.2-0.7-0.3c-0.3-0.1-0.5-0.1-0.8-0.1l-0.1,0.3c0.3,0,0.5,0,0.8,0.1
	C19.6,8.7,19.8,8.8,20,8.9z"/>
<path class="st0" d="M18.1,8.8l-0.1,0.3c0.4,0,0.7,0,1.1,0.1c0.3,0.1,0.7,0.2,1,0.4l0.1-0.3c-0.3-0.2-0.6-0.3-1-0.4
	C18.9,8.8,18.5,8.8,18.1,8.8z"/>
<path class="st0" d="M18.7,7.7l0,0.2c0.3,0,0.5,0,0.8,0.1c0.3,0.1,0.5,0.2,0.7,0.3l0-0.1c-0.4-0.1-0.7-0.2-1.1-0.4
	C19,7.8,18.8,7.7,18.7,7.7z"/>
<g>
	<path class="st0" d="M7.7,9.7l0-0.3C7.4,9.3,7.2,9.2,6.9,9.2c-0.3,0-0.6,0-0.9,0l0,0.3c0.3,0,0.6-0.1,0.9-0.1
		C7.1,9.5,7.4,9.6,7.7,9.7z"/>
	<path class="st0" d="M5.7,10l0,0.4c0.4-0.1,0.8-0.2,1.2-0.2c0.4,0,0.8,0.1,1.1,0.3l0-0.4C7.6,10,7.2,9.9,6.8,9.9
		C6.4,9.9,6,9.9,5.7,10z"/>
	<path class="st0" d="M7.7,9l0-0.2C7.5,8.7,7.3,8.7,7,8.7c-0.1,0-0.2,0-0.3,0c-0.2,0-0.5,0-0.7,0l0,0.2c0.3,0,0.6-0.1,0.9-0.1
		C7.2,8.9,7.5,8.9,7.7,9z"/>
	<path class="st0" d="M20.3,8.1l0.1-0.3c-0.3-0.1-0.5-0.2-0.8-0.3c-0.3-0.1-0.6-0.1-0.9-0.1l-0.1,0.3c0.3,0,0.6,0,0.9,0.1
		C19.8,7.9,20.1,8,20.3,8.1z"/>
	<path class="st0" d="M18.3,8.1l-0.1,0.4c0.4,0,0.8,0,1.2,0.1c0.4,0.1,0.7,0.3,1,0.5l0.1-0.4c-0.3-0.2-0.7-0.4-1.1-0.5
		C19.1,8.1,18.7,8,18.3,8.1z"/>
	<path class="st0" d="M18.9,6.9l0,0.2c0.3,0,0.6,0,0.9,0.1c0.3,0.1,0.5,0.2,0.8,0.3l0-0.1c-0.4-0.1-0.8-0.3-1.2-0.4
		C19.2,6.9,19,6.9,18.9,6.9z"/>
	<path d="M23,7.6V7c-0.2-0.1-0.3-0.1-0.5-0.2c-4.9-1.6-9-3.6-11.4,1c-0.4,0-0.8,0-1.3,0.1v0c-3,0-6.5-0.1-9.1-1v0.7
		c1.1,0.3,2.5,0.6,3.6,0.7c0,0.3-0.1,0.9-0.1,1.2c-0.5-0.1-0.3,0.7-0.4,1c-0.1,0-0.1,0.8-0.1,0.9c-3.8,1.5-2.5,7.6,1.6,7.5
		c3.8,0.1,5.4-5.3,2.1-7.2c0-0.2,0.2-0.9-0.1-1c0-0.3,0.2-1-0.3-1c0-0.3,0.1-0.9,0.1-1.2c1,0,1.9,0,2.7,0c0.3,0,0.7,0,1,0
		c-4.2,7,7.7,2.6,0.9-0.6c1.5-2.7,3.7-2.6,6.8-1.7c-0.1,0.3-0.2,0.8-0.3,1.1c-0.5-0.2-0.5,0.7-0.6,0.9c-0.1,0-0.2,0.7-0.3,0.8
		c-3.9,0.8-3.9,6.8-0.1,7.6c3.8,1.1,6.6-4.1,3.6-6.7c0-0.2,0.3-0.8,0.1-0.9c0-0.3,0.4-1-0.1-1C21,7.7,21.1,7.2,21.2,7
		C21.8,7.2,22.4,7.4,23,7.6z M4.8,8.4c0.3,0,0.5,0,0.8,0c0.1,0,0.2,0,0.3,0c0.3,0,0.5,0.1,0.8,0.1l0,0.2C6.4,8.6,6.1,8.6,5.8,8.5
		c-0.3,0-0.6,0-1,0.1L4.8,8.4z M4.8,9c0.3,0,0.6-0.1,1,0C6.1,9,6.4,9,6.7,9.1l0,0.4C6.3,9.4,6,9.3,5.7,9.3c-0.3,0-0.6,0-1,0.1L4.8,9
		z M6.9,10.4c-0.4-0.2-0.8-0.3-1.2-0.3c-0.5,0-0.9,0-1.3,0.2l0-0.4c0.4-0.1,0.9-0.1,1.3-0.1C6.1,9.7,6.6,9.8,7,10L6.9,10.4z
		 M13.4,10.3c-0.1,0.8-2.5,1.3-2.6,0.8c-0.1-0.6,0.5-1.9,0.8-2.6C11.6,8.5,13.5,9.1,13.4,10.3z M18.8,7c0.3,0,0.6,0.1,0.9,0.1
		c0.3,0.1,0.6,0.2,0.9,0.3l-0.1,0.4c-0.3-0.1-0.6-0.3-0.9-0.4c-0.3-0.1-0.6-0.1-1-0.1L18.8,7z M20.7,8.7c-0.4-0.2-0.7-0.4-1.2-0.5
		c-0.4-0.1-0.9-0.1-1.3-0.1l0.1-0.4c0.4,0,0.9,0,1.3,0.1c0.4,0.1,0.8,0.3,1.2,0.5L20.7,8.7z M20.7,7c-0.3-0.1-0.6-0.3-0.9-0.3
		c-0.3-0.1-0.6-0.1-0.9-0.1L19,6.4c0.2,0,0.3,0,0.5,0.1c0.4,0.1,0.9,0.3,1.3,0.4L20.7,7z"/>
</g>
</svg>
