<?xml version="1.0" encoding="utf-8"?>
<!-- Generator: Adobe Illustrator 24.2.1, SVG Export Plug-In . SVG Version: 6.00 Build 0)  -->
<svg version="1.1" id="Layer_1" xmlns="http://www.w3.org/2000/svg" xmlns:xlink="http://www.w3.org/1999/xlink" x="0px" y="0px"
	 viewBox="0 0 23.8 23.8" style="enable-background:new 0 0 23.8 23.8;" xml:space="preserve">
<style type="text/css">
	.st0{fill:none;}
</style>
<g>
	<path class="st0" d="M11.5,10.2L11.5,10.2C11.4,10,11.2,10,11,9.9c-0.1,0-0.1,0-0.2,0l0,0.1c0.1,0,0.3,0,0.4,0
		C11.3,10.1,11.4,10.1,11.5,10.2z"/>
	<path class="st0" d="M11,10.7c0.2,0,0.3,0.1,0.5,0.2l0-0.2c-0.2-0.1-0.3-0.2-0.5-0.2c-0.2,0-0.4-0.1-0.5-0.1l0,0.2
		C10.7,10.6,10.8,10.6,11,10.7z"/>
	<path class="st0" d="M7.7,10.7c-0.1,0.3-0.2,0.6-0.2,0.9c0,0.2,0.2,0.5,0.6,0.5c0.4,0,0.5-0.3,0.5-0.6C8.7,11.1,8.4,10.7,7.7,10.7
		C7.7,10.7,7.7,10.7,7.7,10.7z"/>
	<path class="st0" d="M11.5,10.5l0-0.1c-0.1-0.1-0.2-0.1-0.4-0.1c-0.1,0-0.3-0.1-0.4-0.1l0,0.1c0.1,0,0.3,0,0.4,0
		C11.2,10.4,11.3,10.4,11.5,10.5z"/>
	<path class="st0" d="M5.3,11.8c-0.2-0.1-0.4-0.1-0.6-0.2c-0.2,0-0.4,0-0.6,0.1l0,0.3c0,0,0,0.1-0.1,0.1c-0.5,0.2-0.9,0.7-0.9,1.2
		c0,0.4,0.1,0.8,0.4,1.1c0.3,0.3,0.6,0.5,1,0.5C5.3,15,6,14.3,6.1,13.5c0-0.6-0.2-1.1-0.7-1.4c0,0,0,0,0-0.1L5.3,11.8z"/>
	<path class="st0" d="M5.2,10.9L5.2,10.9c-0.1-0.1-0.2-0.1-0.3-0.1c0,0-0.1,0-0.1,0c-0.1,0-0.2,0-0.3,0l0,0.1c0.1,0,0.3,0,0.4,0
		C4.9,10.8,5,10.9,5.2,10.9z"/>
	<path class="st0" d="M11.4,11.4l0.1-0.3c-0.2-0.1-0.3-0.2-0.5-0.3c-0.2,0-0.4-0.1-0.6,0l-0.1,0.3c0,0,0,0.1-0.1,0.1
		c-0.6,0.1-1,0.5-1.1,1.1c-0.1,0.4,0,0.8,0.2,1.1c0.2,0.3,0.5,0.6,0.9,0.7c0.1,0,0.2,0,0.4,0c0.7,0,1.2-0.5,1.4-1.1
		C12.1,12.4,11.9,11.8,11.4,11.4C11.4,11.5,11.4,11.4,11.4,11.4z"/>
	<path class="st0" d="M5.1,11.2l0-0.2C5,11,4.9,11,4.8,11c-0.1,0-0.3,0-0.4,0l0,0.2c0.1,0,0.3,0,0.4,0C4.9,11.1,5,11.2,5.1,11.2z"/>
	<path class="st0" d="M5.3,11.6l0-0.2c-0.2-0.1-0.3-0.1-0.5-0.1c-0.2,0-0.4,0-0.5,0l0,0.2c0.2-0.1,0.4-0.1,0.6-0.1
		C4.9,11.5,5.1,11.5,5.3,11.6z"/>
	<path class="st0" d="M15.8,8.7c-0.3,0-0.5,0.1-0.6,0.3c-0.1,0.3-0.1,0.7,0.2,1.1c0.1,0.1,0.1,0.2,0.2,0.2c0.4-0.4,0.6-0.9,0.6-1.2
		C16.2,8.9,16.1,8.7,15.8,8.7z"/>
	<path class="st0" d="M20.8,11.7C20.7,11.7,20.7,11.7,20.8,11.7l-0.2-0.3c-0.2,0-0.4,0-0.6,0.1c-0.2,0.1-0.4,0.2-0.5,0.3l0.1,0.3
		c0,0,0,0.1,0,0.1c-0.4,0.4-0.5,1-0.3,1.5c0.2,0.5,0.8,0.9,1.3,0.9c0.2,0,0.4,0,0.6-0.1c0.7-0.3,1.1-1.2,0.8-1.9
		C21.8,12.1,21.3,11.7,20.8,11.7z"/>
	<path class="st0" d="M19.8,11c0.1-0.1,0.3-0.1,0.4-0.1l-0.1-0.1c-0.1,0-0.3,0.1-0.4,0.1c-0.1,0.1-0.2,0.1-0.3,0.2l0.1,0.1
		C19.6,11.1,19.7,11,19.8,11z"/>
	<path class="st0" d="M19.9,11.3c0.2-0.1,0.3-0.1,0.5-0.1L20.4,11c-0.2,0-0.4,0.1-0.5,0.1c-0.2,0.1-0.3,0.2-0.5,0.3l0.1,0.2
		C19.6,11.5,19.7,11.4,19.9,11.3z"/>
	<path class="st0" d="M14.4,11.3l0,0.2c0.1,0,0.3-0.1,0.4-0.1c0.1,0,0.3,0,0.4,0l0-0.2c-0.1,0-0.3,0-0.4,0
		C14.7,11.2,14.6,11.2,14.4,11.3z"/>
	<path class="st0" d="M20,10.6L20,10.6c-0.2-0.1-0.3,0-0.4,0c-0.1,0.1-0.2,0.1-0.3,0.2l0,0.1c0.1-0.1,0.2-0.1,0.3-0.2
		C19.8,10.7,19.9,10.6,20,10.6z"/>
	<path class="st0" d="M14.8,11c0.1,0,0.3,0,0.4,0l0-0.1c0,0-0.1,0-0.1,0C15,11,14.9,11,14.8,11c0,0-0.1,0-0.2,0c-0.1,0-0.1,0-0.2,0
		l0,0.1C14.5,11.1,14.7,11,14.8,11z"/>
	<path class="st0" d="M14.9,11.8c-0.2,0-0.4,0.1-0.6,0.2l0,0.3c0,0,0,0.1,0,0.1c-0.5,0.3-0.7,0.8-0.7,1.4c0.1,0.8,0.8,1.4,1.6,1.3
		c0.8-0.1,1.4-0.8,1.3-1.6c-0.1-0.6-0.4-1-1-1.2c0,0-0.1,0-0.1-0.1l0-0.3C15.3,11.8,15.1,11.8,14.9,11.8z"/>
	<path class="st0" d="M14.3,11.6l0,0.2c0.2-0.1,0.3-0.1,0.5-0.2c0.2,0,0.4,0,0.5,0l0-0.2c-0.2,0-0.4,0-0.5,0
		C14.7,11.5,14.5,11.6,14.3,11.6z"/>
	<path d="M22.2,12.5c-0.2-0.6-0.8-0.9-1.4-1l-0.1-0.3c0,0,0-0.1-0.1-0.1c0,0,0,0,0,0l-0.1-0.3c0,0-0.1-0.1-0.1-0.1c0,0-0.1,0-0.1,0
		l-0.1-0.2c0,0,0,0,0,0l-0.1-0.2c0.7-0.3,1.3-0.7,1.5-1.1c0-0.1,0-0.1,0-0.2c-0.1,0-0.1,0-0.2,0c-0.5,0.7-2.9,1.8-4.3,1.9
		c-0.5,0-1-0.2-1.3-0.5c0.4-0.4,0.7-1,0.7-1.4c0-0.4-0.3-0.6-0.7-0.6c-0.5,0-0.7,0.2-0.8,0.4c-0.2,0.3-0.1,0.9,0.2,1.4
		c0.1,0.1,0.1,0.2,0.2,0.3c-0.2,0.1-0.4,0.2-0.6,0.2c-0.5,0-1.5-0.3-2.5-0.7C11,9.6,9.6,9.2,8.8,9.4c-0.6,0.1-1,0.6-1.3,1.1
		c-0.1,0-0.2,0-0.4,0c-1.6,0-4.9,0.1-5.5-1.1c0-0.1-0.1-0.1-0.2-0.1c-0.1,0-0.1,0.1-0.1,0.2c0.4,0.7,1.5,1,2.7,1.2l0,0.2
		c0,0,0,0,0,0l0,0.2c0,0-0.1,0-0.1,0c0,0-0.1,0-0.1,0.1l0,0.3c0,0,0,0,0,0l0,0.3c-0.6,0.2-0.9,0.8-1,1.4c0,0.4,0.1,0.9,0.4,1.2
		c0.3,0.3,0.7,0.5,1.1,0.6c0,0,0.1,0,0.1,0c0.9,0,1.6-0.7,1.6-1.5c0-0.6-0.3-1.2-0.8-1.5l0-0.3c0,0,0-0.1,0-0.1c0,0,0,0,0,0l0-0.3
		c0,0,0-0.1-0.1-0.1c0,0-0.1,0-0.1,0l0-0.3c0,0,0,0,0,0l0-0.2c0.7,0,1.3,0,1.8,0c0.1,0,0.2,0,0.3,0c-0.1,0.3-0.2,0.6-0.1,0.9
		c0.1,0.5,0.4,0.7,0.8,0.7c0,0,0,0,0,0c0.5,0,0.8-0.4,0.8-0.9c0-0.5-0.4-1-1.1-1C8,10.1,8.4,9.7,8.9,9.6c0.4-0.1,1.1,0,1.8,0.2
		L10.6,10c0,0,0,0,0,0l-0.1,0.2c0,0-0.1,0-0.1,0c0,0-0.1,0-0.1,0.1l-0.1,0.3c0,0,0,0,0,0L10.2,11c-0.6,0.1-1.1,0.6-1.2,1.2
		c-0.1,0.4,0,0.9,0.2,1.2c0.2,0.4,0.6,0.6,1,0.7c0.1,0,0.3,0.1,0.4,0.1c0.7,0,1.4-0.5,1.6-1.2c0.2-0.6,0-1.2-0.5-1.6l0.1-0.3
		c0,0,0-0.1,0-0.1c0,0,0,0,0,0l0.1-0.3c0,0,0-0.1,0-0.1c0,0-0.1,0-0.1,0l0.1-0.2c0,0,0,0,0,0l0-0.2c0.2,0.1,0.3,0.1,0.5,0.2
		c0.8,0.3,1.5,0.5,2,0.6c0,0,0,0,0,0l0,0.3c0,0,0,0,0,0l0,0.3c0,0-0.1,0-0.1,0c0,0-0.1,0.1-0.1,0.1l0,0.3c0,0,0,0,0,0.1l0,0.3
		c-0.5,0.3-0.8,0.9-0.7,1.5c0.1,0.8,0.8,1.4,1.6,1.4c0.1,0,0.1,0,0.2,0c0.9-0.1,1.5-0.9,1.4-1.8c-0.1-0.6-0.5-1.1-1-1.3l0-0.3
		c0,0,0-0.1-0.1-0.1c0,0,0,0,0,0l0-0.3c0,0,0-0.1-0.1-0.1c0,0-0.1,0-0.1,0l0-0.2c0,0,0,0,0,0l0-0.3c0,0,0,0,0,0
		c0.1,0,0.2-0.1,0.2-0.1c0.4,0.4,0.9,0.7,1.5,0.6c0.6,0,1.3-0.2,2-0.5l0.1,0.2c0,0,0,0,0,0l0.1,0.2c0,0,0,0-0.1,0c0,0,0,0.1,0,0.1
		l0.1,0.3c0,0,0,0,0,0.1l0.1,0.3c-0.4,0.5-0.5,1.1-0.3,1.7c0.3,0.6,0.8,1,1.5,1c0.2,0,0.4,0,0.6-0.1C22.1,14.3,22.5,13.3,22.2,12.5z
		 M4.4,10.7c0.1,0,0.2,0,0.3,0c0,0,0.1,0,0.1,0c0.1,0,0.2,0,0.3,0.1l0,0.1c-0.1,0-0.3-0.1-0.4-0.1C4.6,10.8,4.5,10.8,4.4,10.7
		L4.4,10.7z M4.4,11c0.1,0,0.3,0,0.4,0c0.1,0,0.3,0,0.4,0.1l0,0.2c-0.1,0-0.3-0.1-0.4-0.1c-0.1,0-0.3,0-0.4,0L4.4,11z M4.2,11.3
		c0.2,0,0.4-0.1,0.5,0c0.2,0,0.4,0.1,0.5,0.1l0,0.2c-0.2-0.1-0.3-0.1-0.5-0.1c-0.2,0-0.4,0-0.6,0.1L4.2,11.3z M5.3,12.2
		c0.5,0.3,0.8,0.8,0.7,1.4C6,14.3,5.3,15,4.5,14.9c-0.4,0-0.7-0.2-1-0.5c-0.3-0.3-0.4-0.7-0.4-1.1c0-0.6,0.4-1,0.9-1.2
		c0,0,0.1,0,0.1-0.1l0-0.3c0.2-0.1,0.4-0.1,0.6-0.1c0.2,0,0.4,0.1,0.6,0.2L5.3,12.2C5.3,12.1,5.3,12.2,5.3,12.2z M8.7,11.5
		c0,0.3-0.2,0.6-0.5,0.6c-0.4,0-0.6-0.3-0.6-0.5c0-0.3,0-0.6,0.2-0.9c0,0,0,0,0.1,0C8.4,10.7,8.7,11.1,8.7,11.5z M10.8,9.9
		c0.1,0,0.1,0,0.2,0c0.2,0.1,0.4,0.1,0.6,0.2l0,0.1c-0.1-0.1-0.2-0.1-0.4-0.1C11,10,10.9,10,10.8,9.9L10.8,9.9z M10.7,10.1
		c0.1,0,0.3,0,0.4,0.1c0.1,0,0.3,0.1,0.4,0.1l0,0.1c-0.1-0.1-0.2-0.1-0.4-0.2c-0.1,0-0.3,0-0.4,0L10.7,10.1z M10.5,10.4
		c0.2,0,0.4,0,0.5,0.1c0.2,0,0.3,0.1,0.5,0.2l0,0.2c-0.1-0.1-0.3-0.2-0.5-0.2c-0.2,0-0.4-0.1-0.6,0L10.5,10.4z M11.9,12.9
		c-0.2,0.6-0.7,1.1-1.4,1.1c-0.1,0-0.2,0-0.4,0c-0.4-0.1-0.7-0.3-0.9-0.7C9.1,13,9,12.6,9.1,12.2c0.1-0.5,0.6-1,1.1-1.1
		c0,0,0.1,0,0.1-0.1l0.1-0.3c0.2,0,0.4,0,0.6,0c0.2,0,0.4,0.1,0.5,0.3l-0.1,0.3c0,0,0,0.1,0,0.1C11.9,11.8,12.1,12.4,11.9,12.9z
		 M15.2,11.3c-0.1,0-0.3,0-0.4,0c-0.1,0-0.3,0.1-0.4,0.1l0-0.2c0.1,0,0.3-0.1,0.4-0.1c0.1,0,0.3,0,0.4,0L15.2,11.3z M14.6,11
		c0.1,0,0.1,0,0.2,0c0.1,0,0.2,0,0.3-0.1c0,0,0.1,0,0.1,0l0,0.1c-0.1,0-0.3,0-0.4,0c-0.1,0-0.3,0.1-0.4,0.1l0-0.1
		C14.5,11,14.5,11,14.6,11z M15.5,11.9l0,0.3c0,0,0,0.1,0.1,0.1c0.5,0.2,0.9,0.6,1,1.2c0.1,0.8-0.5,1.5-1.3,1.6
		c-0.8,0.1-1.5-0.5-1.6-1.3c-0.1-0.6,0.2-1.1,0.7-1.4c0,0,0-0.1,0-0.1l0-0.3c0.2-0.1,0.4-0.2,0.6-0.2C15.1,11.8,15.3,11.8,15.5,11.9
		z M15.4,11.5l0,0.2c-0.2,0-0.3-0.1-0.5,0c-0.2,0-0.4,0.1-0.5,0.2l0-0.2c0.2-0.1,0.3-0.1,0.5-0.1C15,11.5,15.2,11.5,15.4,11.5z
		 M15.4,10.1c-0.3-0.4-0.4-0.9-0.2-1.1c0.1-0.2,0.3-0.3,0.6-0.3c0.3,0,0.5,0.1,0.5,0.4c0,0.4-0.2,0.9-0.6,1.2
		C15.5,10.3,15.5,10.2,15.4,10.1z M19.3,10.9L19.3,10.9c0.1-0.2,0.2-0.2,0.3-0.3c0.1,0,0.2-0.1,0.4-0.1l0,0.1
		c-0.1,0-0.3,0.1-0.4,0.1C19.5,10.8,19.4,10.8,19.3,10.9z M19.7,10.9c0.1,0,0.2-0.1,0.4-0.1l0.1,0.1c-0.1,0-0.3,0-0.4,0.1
		c-0.1,0.1-0.2,0.1-0.3,0.2l-0.1-0.1C19.5,11,19.6,10.9,19.7,10.9z M19.4,11.4c0.1-0.1,0.3-0.2,0.5-0.3c0.2-0.1,0.3-0.1,0.5-0.1
		l0.1,0.2c-0.2,0-0.4,0-0.5,0.1c-0.2,0.1-0.3,0.2-0.5,0.3L19.4,11.4z M21.2,14.5c-0.2,0.1-0.4,0.1-0.6,0.1c-0.6,0-1.1-0.4-1.3-0.9
		c-0.2-0.5-0.1-1.1,0.3-1.5c0,0,0-0.1,0-0.1l-0.1-0.3c0.1-0.1,0.3-0.3,0.5-0.3c0.2-0.1,0.4-0.1,0.6-0.1l0.1,0.3c0,0,0,0.1,0.1,0.1
		c0.6,0,1,0.4,1.3,0.9C22.3,13.3,22,14.2,21.2,14.5z"/>
</g>
</svg>
